<mxfile host="65bd71144e">
    <diagram id="Me1RnN6ssg1Y0TnX2-Z7" name="ページ1">
        <mxGraphModel dx="2110" dy="2065" grid="1" gridSize="10" guides="1" tooltips="1" connect="1" arrows="1" fold="1" page="1" pageScale="1" pageWidth="827" pageHeight="1169" math="0" shadow="0">
            <root>
                <mxCell id="0"/>
                <mxCell id="1" parent="0"/>
                <mxCell id="5" value="" style="rounded=0;whiteSpace=wrap;html=1;strokeWidth=3;strokeColor=none;fillColor=#FFFFFF;" vertex="1" parent="1">
                    <mxGeometry width="1010" height="750" as="geometry"/>
                </mxCell>
                <mxCell id="2" value="" style="rounded=0;whiteSpace=wrap;html=1;fillColor=#0099FF;" vertex="1" parent="1">
                    <mxGeometry width="1010" height="60" as="geometry"/>
                </mxCell>
                <mxCell id="3" value="works" style="text;html=1;strokeColor=none;fillColor=none;align=center;verticalAlign=middle;whiteSpace=wrap;rounded=0;strokeWidth=3;" vertex="1" parent="1">
                    <mxGeometry x="770" y="20" width="80" height="20" as="geometry"/>
                </mxCell>
                <mxCell id="4" value="profile" style="text;html=1;strokeColor=none;fillColor=none;align=center;verticalAlign=middle;whiteSpace=wrap;rounded=0;strokeWidth=3;" vertex="1" parent="1">
                    <mxGeometry x="900" y="20" width="80" height="20" as="geometry"/>
                </mxCell>
                <mxCell id="6" value="サイトサムネイル" style="rounded=0;whiteSpace=wrap;html=1;strokeWidth=3;fillColor=#FFFFFF;strokeColor=#000000;fontColor=#000000;" vertex="1" parent="1">
                    <mxGeometry x="174" y="180" width="240" height="190" as="geometry"/>
                </mxCell>
                <mxCell id="8" value="産業情報学科ウェブサイト" style="text;html=1;strokeColor=none;fillColor=none;align=center;verticalAlign=middle;whiteSpace=wrap;rounded=0;fontColor=#000000;" vertex="1" parent="1">
                    <mxGeometry x="590" y="180" width="260" height="20" as="geometry"/>
                </mxCell>
                <mxCell id="9" value="Works" style="text;html=1;strokeColor=none;fillColor=none;align=center;verticalAlign=middle;whiteSpace=wrap;rounded=0;fontColor=#000000;fontSize=32;" vertex="1" parent="1">
                    <mxGeometry x="380" y="100" width="250" height="30" as="geometry"/>
                </mxCell>
                <mxCell id="10" value="サイト名" style="text;html=1;strokeColor=none;fillColor=none;align=center;verticalAlign=middle;whiteSpace=wrap;rounded=0;fontColor=#000000;" vertex="1" parent="1">
                    <mxGeometry x="445" y="180" width="120" height="20" as="geometry"/>
                </mxCell>
                <mxCell id="11" value="開発期間" style="text;html=1;strokeColor=none;fillColor=none;align=center;verticalAlign=middle;whiteSpace=wrap;rounded=0;fontSize=12;fontColor=#000000;" vertex="1" parent="1">
                    <mxGeometry x="445" y="210" width="125" height="20" as="geometry"/>
                </mxCell>
                <mxCell id="12" value="2019年5月 ~ 2019年7月" style="text;html=1;strokeColor=none;fillColor=none;align=center;verticalAlign=middle;whiteSpace=wrap;rounded=0;fontSize=12;fontColor=#000000;" vertex="1" parent="1">
                    <mxGeometry x="580" y="210" width="280" height="20" as="geometry"/>
                </mxCell>
                <mxCell id="13" value="担当範囲" style="text;html=1;strokeColor=none;fillColor=none;align=center;verticalAlign=middle;whiteSpace=wrap;rounded=0;fontSize=12;fontColor=#000000;" vertex="1" parent="1">
                    <mxGeometry x="452.5" y="240" width="110" height="20" as="geometry"/>
                </mxCell>
                <mxCell id="14" value="構築設計、実装、バグ修正" style="text;html=1;strokeColor=none;fillColor=none;align=center;verticalAlign=middle;whiteSpace=wrap;rounded=0;fontSize=12;fontColor=#000000;" vertex="1" parent="1">
                    <mxGeometry x="580" y="240" width="280" height="20" as="geometry"/>
                </mxCell>
                <mxCell id="15" value="説明" style="text;html=1;strokeColor=none;fillColor=none;align=center;verticalAlign=middle;whiteSpace=wrap;rounded=0;fontSize=12;fontColor=#000000;" vertex="1" parent="1">
                    <mxGeometry x="452.5" y="270" width="110" height="20" as="geometry"/>
                </mxCell>
                <mxCell id="16" value="&lt;div style=&quot;text-align: left&quot;&gt;&lt;span&gt;大学在籍中に所属していた学科のホームページのリニューアルを担当した。チームメイトの後輩のデザインを元に構築全般を担当。&lt;/span&gt;&lt;/div&gt;&lt;div style=&quot;text-align: left&quot;&gt;&lt;span&gt;各セクションの区切りがすべて斜めでレイアウトされているのが特徴。&lt;/span&gt;&lt;/div&gt;" style="text;html=1;strokeColor=none;fillColor=none;align=center;verticalAlign=middle;whiteSpace=wrap;rounded=0;fontSize=12;fontColor=#000000;" vertex="1" parent="1">
                    <mxGeometry x="591" y="270" width="274" height="80" as="geometry"/>
                </mxCell>
                <mxCell id="17" value="使用言語" style="text;html=1;strokeColor=none;fillColor=none;align=center;verticalAlign=middle;whiteSpace=wrap;rounded=0;fontSize=12;fontColor=#000000;" vertex="1" parent="1">
                    <mxGeometry x="450" y="360" width="110" height="20" as="geometry"/>
                </mxCell>
                <mxCell id="18" value="HTML5、CSS3、javascript" style="text;html=1;strokeColor=none;fillColor=none;align=center;verticalAlign=middle;whiteSpace=wrap;rounded=0;fontSize=12;fontColor=#000000;" vertex="1" parent="1">
                    <mxGeometry x="580" y="360" width="280" height="20" as="geometry"/>
                </mxCell>
                <mxCell id="19" value="URL" style="text;html=1;strokeColor=none;fillColor=none;align=center;verticalAlign=middle;whiteSpace=wrap;rounded=0;fontSize=12;fontColor=#000000;" vertex="1" parent="1">
                    <mxGeometry x="450" y="390" width="110" height="20" as="geometry"/>
                </mxCell>
                <mxCell id="20" value="HTML5、CSS3、javascript" style="text;html=1;strokeColor=none;fillColor=none;align=center;verticalAlign=middle;whiteSpace=wrap;rounded=0;fontSize=12;fontColor=#000000;" vertex="1" parent="1">
                    <mxGeometry x="580" y="390" width="280" height="20" as="geometry"/>
                </mxCell>
                <mxCell id="21" value="" style="rounded=0;whiteSpace=wrap;html=1;fillColor=#0099FF;" vertex="1" parent="1">
                    <mxGeometry y="720" width="1010" height="30" as="geometry"/>
                </mxCell>
            </root>
        </mxGraphModel>
    </diagram>
</mxfile>